<?xml version="1.0" encoding="UTF-8"?>
<svg width="50px" height="50px" viewBox="0 0 50 50" version="1.1" xmlns="http://www.w3.org/2000/svg" xmlns:xlink="http://www.w3.org/1999/xlink">
    <!-- Generator: Sketch 52.2 (67145) - http://www.bohemiancoding.com/sketch -->
    <title>Group 30</title>
    <desc>Created with Sketch.</desc>
    <defs>
        <polygon id="path-1" points="0 0 23 0 23 26 0 26"></polygon>
    </defs>
    <g id="02---PAGES-DATAS-BON-ORDRE" stroke="none" stroke-width="1" fill="none" fill-rule="evenodd">
        <g id="Group-30">
            <g id="Group-29">
                <rect id="Rectangle" fill="#93ECD4" x="0" y="0" width="50" height="50" rx="25"></rect>
                <g id="Group-3" transform="translate(14.000000, 12.000000)">
                    <mask id="mask-2" fill="white">
                        <use xlink:href="#path-1"></use>
                    </mask>
                    <g id="Clip-2"></g>
                    <path d="M21.4299065,2.25111731 C20.0699531,0.75104723 18.2477615,0 15.9608988,0 C15.1892854,0 14.170334,0.0194341062 12.9032337,0.0591120731 C11.6353224,0.0983851628 10.7732887,0.117009515 10.3159162,0.117009515 C7.93741681,0.117009515 6.21213301,0.0789510566 5.14087572,0 C5.03585844,0.117009515 4.94462722,0.35588707 4.8663711,0.714608281 C4.78770952,1.07413925 4.77513988,1.31828021 4.82744578,1.44865067 C6.26524986,1.56606506 7.00969664,1.7749817 7.06159707,2.07459084 C7.08795276,2.17945404 7.10417164,2.29362941 7.11106467,2.41752184 C7.11714675,2.54181914 7.1134975,2.69162371 7.10133334,2.8677453 C7.08795276,3.04346201 7.07497765,3.19083732 7.06159707,3.30825171 C7.04821649,3.4256661 7.02267175,3.6086706 6.98293548,3.85645546 C6.94441563,4.10424031 6.91157239,4.29007895 6.88521671,4.41437626 C6.85886102,4.53786381 6.81669192,4.7601414 6.75789847,5.07918464 C6.69910501,5.39903764 6.65653044,5.62455425 6.63058022,5.75451983 L3.80808892,20.163695 C3.45532819,22.082813 3.12851767,23.3104007 2.82846831,23.8460532 C2.64478945,24.1982964 1.82168108,24.4335301 0.358332262,24.5505396 C0.240745352,24.6817198 0.142215631,24.9262656 0.0643649875,25.2857966 C-0.0142966005,25.6457324 -0.0207841541,25.8825856 0.0444968544,26 C1.74301949,25.8178053 3.48087293,25.7267079 5.25846263,25.7267079 C7.1134975,25.7267079 8.83837583,25.8178053 10.4335031,26 C10.5381149,25.8825856 10.6224531,25.6457324 10.6881396,25.2857966 C10.7534206,24.9262656 10.7595027,24.6817198 10.7080077,24.5505396 C9.2965593,24.4335301 8.56427668,24.1982964 8.51278173,23.8460532 C8.48602057,23.7407852 8.46980168,23.6274195 8.46331413,23.5023125 C8.45682658,23.3796347 8.46047583,23.2290204 8.47304546,23.052089 C8.48602057,22.8763723 8.4985902,22.7294019 8.51278173,22.6119875 C8.52575683,22.4945731 8.55130158,22.3111637 8.59063237,22.0633789 C8.63036864,21.8147842 8.66199546,21.6293505 8.68875662,21.5054581 C8.71511231,21.3811608 8.75728141,21.1580734 8.81648033,20.8386253 C8.87486832,20.5191772 8.91744289,20.2932557 8.9433931,20.163695 L12.0014637,4.42328355 C12.0278194,4.29372285 12.0699885,4.08440133 12.1287819,3.79774826 C12.1875754,3.51028544 12.23015,3.31149073 12.2565057,3.20055437 C12.2820504,3.08961801 12.3148936,2.9458866 12.3542244,2.76976502 C12.3935552,2.5940483 12.4357243,2.44991202 12.4819481,2.33938054 C12.527361,2.22844418 12.5764231,2.12682 12.628729,2.03612751 C12.8245721,1.72275254 13.4644071,1.56606506 14.5494504,1.56606506 C15.725725,1.56606506 16.5691069,2.21872713 17.0787854,3.52364639 C17.5880583,4.82897052 17.6719911,6.38086488 17.3330164,8.18175872 C17.084462,9.44740489 16.4705772,10.5733684 15.4905511,11.5580298 C14.5101196,12.5435009 13.5560437,13.0358316 12.628729,13.0358316 C12.1587869,13.0358316 11.7662899,12.9840074 11.4528599,12.879549 C11.4131237,12.879549 11.3709546,12.905866 11.3251362,12.9572855 C11.2793179,13.0095146 11.2570169,13.0746998 11.2570169,13.153246 C11.2570169,13.2581092 11.3024298,13.4208699 11.3932555,13.6427426 C11.4852977,13.8646153 11.5704469,14.0014638 11.6482975,14.0536929 C12.1969013,14.4452092 12.8111915,14.6407649 13.4907627,14.6407649 C14.4448386,14.6407649 15.4114841,14.4901506 16.3923211,14.1909463 C17.3719417,13.8909323 18.3097987,13.463382 19.2050811,12.9082953 C20.099958,12.3540184 20.8776535,11.6171419 21.5377621,10.6964511 C22.1974652,9.77697494 22.6382134,8.75587461 22.8604121,7.6331501 C23.2654787,5.54641294 22.789049,3.75199713 21.4299065,2.25111731" id="Fill-1" fill="#FFFFFF" mask="url(#mask-2)"></path>
                </g>
            </g>
        </g>
    </g>
</svg>