<?xml version="1.0" encoding="UTF-8"?>
<svg width="23px" height="25px" viewBox="0 0 23 25" version="1.1" xmlns="http://www.w3.org/2000/svg" xmlns:xlink="http://www.w3.org/1999/xlink">
    <!-- Generator: Sketch 52.2 (67145) - http://www.bohemiancoding.com/sketch -->
    <title>news-paper-media-publication-magazine</title>
    <desc>Created with Sketch.</desc>
    <g id="03---AUTRES-PAGES-+-MENU" stroke="none" stroke-width="1" fill="none" fill-rule="evenodd">
        <g class="fill" id="news-paper-media-publication-magazine" fill="#FFFFFF" fill-rule="nonzero">
            <path d="M19.7657437,0 L3.23317138,0 C1.44950234,0 0,1.67041479 0,3.72438781 L0,20.1661669 C0,20.1824088 0.00759469786,20.1961519 0.00759469786,20.2123938 C-0.00216991368,20.4222889 0.0575027124,20.6346827 0.198547101,20.7921039 L3.80928346,24.7901049 C4.06099344,25.0687156 4.46025756,25.069965 4.71196755,24.7901049 L7.87461673,21.2906047 L11.0383509,24.7901049 C11.2900609,25.069965 11.689325,25.069965 11.941035,24.7901049 L15.105854,21.2906047 L18.2771829,24.7913543 C18.4030379,24.930035 18.5657814,25 18.72744,25 C18.8890985,25 19.0518421,24.930035 19.1776971,24.7913543 L22.799283,20.7933533 C22.9414123,20.635932 23.001085,20.4235382 22.9913203,20.2136432 C22.9924053,20.1974013 23,20.1836582 23,20.1674163 L23,3.72438781 C23,1.67166417 21.5494127,0 19.7657437,0 Z M21.6980518,19.9312844 L18.72744,23.2108946 L15.5561111,19.7101449 C15.3044012,19.4315342 14.906222,19.4315342 14.654512,19.7101449 L11.4896929,23.2096452 L8.32595877,19.7101449 C8.07424879,19.4302849 7.67498467,19.4302849 7.42327468,19.7101449 L4.2606255,23.2096452 L1.30086325,19.9312844 L1.30086325,3.72438781 C1.30086325,2.49750125 2.16774376,1.49925037 3.23317138,1.49925037 L19.7657437,1.49925037 C20.8311713,1.49925037 21.6980518,2.49750125 21.6980518,3.72438781 L21.6980518,19.9312844 Z M10.3125147,7.86856572 L5.14703524,7.86856572 C4.78791452,7.86856572 4.49606113,8.20464768 4.49606113,8.6181909 L4.49606113,14.5677161 C4.49606113,14.9825087 4.78791452,15.3173413 5.14703524,15.3173413 L10.3135997,15.3173413 C10.6727204,15.3173413 10.9645738,14.9812594 10.9645738,14.5677161 L10.9645738,8.6181909 C10.9634888,8.20464768 10.6716355,7.86856572 10.3125147,7.86856572 Z M9.6626256,13.818091 L5.79692438,13.818091 L5.79692438,9.36781609 L9.66154064,9.36781609 L9.66154064,13.818091 L9.6626256,13.818091 Z M18.5028539,9.31534233 C18.5028539,9.73013493 18.2110005,10.0649675 17.8518798,10.0649675 L13.9774989,10.0649675 C13.6183782,10.0649675 13.3265248,9.72888556 13.3265248,9.31534233 C13.3265248,8.9017991 13.6183782,8.56571714 13.9774989,8.56571714 L17.8518798,8.56571714 C18.2120855,8.56571714 18.5028539,8.9017991 18.5028539,9.31534233 Z M18.5028539,13.8705647 C18.5028539,14.2853573 18.2110005,14.6201899 17.8518798,14.6201899 L13.9774989,14.6201899 C13.6183782,14.6201899 13.3265248,14.2841079 13.3265248,13.8705647 C13.3265248,13.4570215 13.6183782,13.1209395 13.9774989,13.1209395 L17.8518798,13.1209395 C18.2120855,13.1209395 18.5028539,13.4570215 18.5028539,13.8705647 Z" id="Shape"></path>
        </g>
    </g>
</svg>