<?xml version="1.0" encoding="UTF-8"?>
<svg width="36px" height="24px" viewBox="0 0 36 24" version="1.1" xmlns="http://www.w3.org/2000/svg" xmlns:xlink="http://www.w3.org/1999/xlink">
    <!-- Generator: Sketch 52.2 (67145) - http://www.bohemiancoding.com/sketch -->
    <title>Bar graph</title>
    <desc>Created with Sketch.</desc>
    <g id="03---AUTRES-PAGES-+-MENU" stroke="none" stroke-width="1" fill="none" fill-rule="evenodd">
        <path class="fill" d="M31.0344828,21.7241379 L26.6896552,21.7241379 L26.6896552,11.7931034 C26.6896552,11.4501724 26.9674138,11.1708621 27.3103448,11.1708621 L30.4137931,11.1708621 C30.7567241,11.1708621 31.0344828,11.4501724 31.0344828,11.7931034 L31.0344828,21.7241379 Z M20.1724138,21.7241379 L15.8275862,21.7241379 L15.8275862,2.48275862 C15.8275862,2.13982759 16.1053448,1.86051724 16.4482759,1.86051724 L19.5517241,1.86051724 C19.8946552,1.86051724 20.1724138,2.13982759 20.1724138,2.48275862 L20.1724138,21.7241379 Z M9.31034483,21.7241379 L4.96551724,21.7241379 L4.96551724,10.2413793 C4.96551724,9.89844828 5.24327586,9.61913793 5.5862069,9.61913793 L8.68965517,9.61913793 C9.03258621,9.61913793 9.31034483,9.89844828 9.31034483,10.2413793 L9.31034483,21.7241379 Z M35.0689655,21.7241379 L32.8965517,21.7241379 L32.8965517,11.7931034 C32.8965517,10.422931 31.7824138,9.31034483 30.4137931,9.31034483 L27.3103448,9.31034483 C25.9417241,9.31034483 24.8275862,10.422931 24.8275862,11.7931034 L24.8275862,21.7241379 L22.0344828,21.7241379 L22.0344828,2.48275862 C22.0344828,1.11258621 20.9203448,0 19.5517241,0 L16.4482759,0 C15.0796552,0 13.9655172,1.11258621 13.9655172,2.48275862 L13.9655172,21.7241379 L11.1724138,21.7241379 L11.1724138,10.2413793 C11.1724138,8.8712069 10.0582759,7.75862069 8.68965517,7.75862069 L5.5862069,7.75862069 C4.21758621,7.75862069 3.10344828,8.8712069 3.10344828,10.2413793 L3.10344828,21.7241379 L0.931034483,21.7241379 C0.417413793,21.7241379 0,22.14 0,22.6551724 C0,23.1703448 0.417413793,23.5846552 0.931034483,23.5846552 L35.0689655,23.5846552 C35.5841379,23.5846552 36,23.1703448 36,22.6551724 C36,22.14 35.5841379,21.7241379 35.0689655,21.7241379 Z" id="Bar-graph" fill="#FFFFFF"></path>
    </g>
</svg>