<?xml version="1.0" encoding="UTF-8"?>
<svg width="24px" height="26px" viewBox="0 0 24 26" version="1.1" xmlns="http://www.w3.org/2000/svg" xmlns:xlink="http://www.w3.org/1999/xlink">
    <!-- Generator: Sketch 52.2 (67145) - http://www.bohemiancoding.com/sketch -->
    <title>ô</title>
    <desc>Created with Sketch.</desc>
    <g id="02---PAGES-DATAS-BON-ORDRE" stroke="none" stroke-width="1" fill="none" fill-rule="evenodd">
        <path class="fill" d="M0,16.4840336 C0,14.9193199 0.282937531,13.5462244 0.848821082,12.3647059 C1.41470463,11.1831874 2.22190877,10.1959423 3.2704577,9.40294118 C4.31900663,8.60994001 5.58112993,8.0112065 7.05686546,7.60672269 C8.532601,7.20223887 10.180296,7 12,7 C13.819704,7 15.467399,7.20223887 16.9431345,7.60672269 C18.4188701,8.0112065 19.6782195,8.60994001 20.7212205,9.40294118 C21.7642216,10.1959423 22.5714257,11.1831874 23.1428571,12.3647059 C23.7142886,13.5462244 24,14.9193199 24,16.4840336 C24,18.0274587 23.7142886,19.3952321 23.1428571,20.587395 C22.5714257,21.7795578 21.7642216,22.777447 20.7212205,23.5810924 C19.6782195,24.3847379 18.4188701,24.9887935 16.9431345,25.3932773 C15.467399,25.7977611 13.819704,26 12,26 C10.180296,26 8.532601,25.7977611 7.05686546,25.3932773 C5.58112993,24.9887935 4.31900663,24.3847379 3.2704577,23.5810924 C2.22190877,22.777447 1.41470463,21.7795578 0.848821082,20.587395 C0.282937531,19.3952321 0,18.0274587 0,16.4840336 Z M9,15.9835526 C9,16.9046099 9.04125371,17.6858521 9.12376238,18.3273026 C9.20627104,18.9687532 9.34103317,19.4840989 9.52805281,19.8733553 C9.71507244,20.2626116 9.96809521,20.5476965 10.2871287,20.7286184 C10.6061622,20.9095404 11.0131988,21 11.5082508,21 C12.0033028,21 12.4075892,20.9095404 12.7211221,20.7286184 C13.034655,20.5476965 13.2876778,20.2626116 13.480198,19.8733553 C13.6727182,19.4840989 13.8074804,18.9687532 13.8844884,18.3273026 C13.9614965,17.6858521 14,16.9046099 14,15.9835526 C14,14.1414382 13.8267344,12.8503326 13.480198,12.1101974 C13.1336616,11.3700621 12.4763525,11 11.5082508,11 C11.0131988,11 10.6061622,11.0849772 10.2871287,11.2549342 C9.96809521,11.4248912 9.71507244,11.7044937 9.52805281,12.09375 C9.34103317,12.4830063 9.20627104,12.9983521 9.12376238,13.6398026 C9.04125371,14.2812532 9,15.0624954 9,15.9835526 Z M8.99378109,0 L14.0062189,0 L18,5 L14.0708955,5 L11.4838308,3.2038835 L8.92910448,5 L5,5 L8.99378109,0 Z" id="ô" fill="#FFFFFF"></path>
    </g>
</svg>