<?xml version="1.0" encoding="UTF-8"?>
<svg width="50px" height="50px" viewBox="0 0 50 50" version="1.1" xmlns="http://www.w3.org/2000/svg" xmlns:xlink="http://www.w3.org/1999/xlink">
    <!-- Generator: Sketch 52.2 (67145) - http://www.bohemiancoding.com/sketch -->
    <title>Group 29</title>
    <desc>Created with Sketch.</desc>
    <g id="02---PAGES-DATAS-BON-ORDRE" stroke="none" stroke-width="1" fill="none" fill-rule="evenodd">
        <g id="Group-29">
            <rect id="Rectangle" fill="#D9685C" x="0" y="0" width="50" height="50" rx="25"></rect>
            <path d="M31.9585034,36.9020408 C30.5068027,38.6836735 27.8673469,40.1353741 24.7,40.1353741 C21.5326531,40.1353741 18.8931973,38.6836735 17.4414966,36.9020408 C15.8578231,34.922449 15,32.744898 15,29.247619 C15,25.7503401 15.8578231,23.5727891 17.4414966,21.5931973 C18.8931973,19.8115646 21.5326531,18.3598639 24.7,18.3598639 C27.8673469,18.3598639 30.5068027,19.8115646 31.9585034,21.5931973 C33.5421769,23.5727891 34.4,25.7503401 34.4,29.247619 C34.4,32.744898 33.5421769,34.922449 31.9585034,36.9020408 Z M24.5680272,8 L30.9027211,14.3346939 L28.5272109,16.6442177 L24.5680272,12.8170068 L20.5428571,16.7761905 L18.1673469,14.3346939 L24.5680272,8 Z M27.8673469,23.9687075 C27.207483,23.2428571 26.0857143,22.6489796 24.7,22.6489796 C23.3142857,22.6489796 22.2585034,23.2428571 21.5326531,23.9687075 C20.344898,25.2884354 20.0809524,27.2680272 20.0809524,29.1816327 C20.0809524,31.1612245 20.344898,33.0748299 21.5326531,34.3945578 C22.192517,35.1204082 23.3142857,35.7142857 24.7,35.7142857 C26.0857143,35.7142857 27.1414966,35.1204082 27.8673469,34.3945578 C29.055102,33.0748299 29.3190476,31.0952381 29.3190476,29.1816327 C29.3190476,27.2680272 29.055102,25.2884354 27.8673469,23.9687075 Z" id="XMLID_287_" fill="#FFFFFF" fill-rule="nonzero"></path>
        </g>
    </g>
</svg>